<?xml version="1.0" standalone="no"?>
<!DOCTYPE svg PUBLIC "-//W3C//DTD SVG 20010904//EN"
 "http://www.w3.org/TR/2001/REC-SVG-20010904/DTD/svg10.dtd">
<svg version="1.0" xmlns="http://www.w3.org/2000/svg"
 width="480.000000pt" height="640.000000pt" viewBox="0 0 480.000000 640.000000"
 preserveAspectRatio="xMidYMid meet">

<g transform="translate(0.000000,640.000000) scale(0.100000,-0.100000)"
fill="#000000" stroke="none">
<path d="M1970 5550 c0 -5 5 -10 11 -10 5 0 7 5 4 10 -3 6 -8 10 -11 10 -2 0
-4 -4 -4 -10z"/>
<path d="M1995 5522 c-2 -2 -1 -10 1 -17 7 -18 -20 -25 -58 -14 -18 5 -34 9
-35 9 -1 0 2 -11 7 -25 7 -19 6 -23 -6 -18 -10 4 -12 0 -8 -10 4 -12 -2 -18
-23 -23 -15 -4 -30 -10 -33 -14 -3 -3 -57 -12 -120 -18 -63 -7 -116 -16 -118
-22 -2 -6 -27 -8 -60 -5 -31 2 -48 2 -37 -1 30 -9 41 -22 27 -36 -9 -9 -16 -8
-30 5 -18 16 -42 23 -42 12 0 -3 15 -26 33 -50 27 -37 39 -45 77 -51 25 -3 52
-11 60 -16 10 -6 2 -7 -23 -3 -36 6 -38 5 -32 -14 5 -16 3 -20 -9 -15 -8 3
-18 14 -21 24 -3 10 -19 23 -36 29 -16 5 -32 17 -35 26 -3 8 -10 15 -16 15 -5
0 -6 -4 -3 -10 3 -5 1 -10 -4 -10 -6 0 -11 6 -11 13 -1 8 -4 7 -13 -3 -7 -8
-23 -20 -37 -26 -58 -27 -130 -54 -143 -54 -7 0 -20 -11 -27 -25 -10 -19 -21
-25 -47 -25 -22 0 -33 -5 -33 -15 0 -8 -11 -17 -25 -21 -14 -3 -25 -11 -25
-18 0 -6 -17 -22 -37 -36 -20 -14 -59 -48 -87 -75 -28 -28 -69 -64 -91 -82
-22 -17 -51 -53 -64 -80 -42 -86 -54 -108 -78 -136 -23 -28 -30 -57 -15 -57 5
0 14 -12 21 -26 13 -29 0 -85 -39 -163 -14 -28 -20 -55 -17 -75 3 -17 -2 -56
-9 -88 -8 -31 -17 -96 -19 -145 -3 -48 -5 -92 -5 -98 -2 -24 8 -67 19 -78 6
-6 11 -30 11 -54 0 -23 6 -62 14 -85 7 -24 14 -52 14 -63 2 -49 21 -194 31
-235 6 -25 18 -124 27 -220 13 -142 20 -179 35 -196 28 -30 24 -46 -8 -38
l-26 7 30 -39 c36 -46 46 -79 28 -94 -7 -6 -16 -22 -19 -36 -6 -22 -8 -23 -27
-11 -10 8 -34 27 -52 44 -34 31 -67 48 -67 34 0 -15 61 -100 100 -139 39 -38
39 -39 51 -153 6 -63 17 -127 24 -144 7 -16 16 -48 20 -70 4 -22 13 -50 21
-62 7 -12 16 -48 20 -80 9 -86 42 -193 60 -193 11 0 13 9 9 38 -3 20 -10 66
-15 102 -5 36 -22 129 -39 208 -40 190 -53 354 -38 485 4 32 14 122 22 200 31
292 37 328 61 389 13 35 22 69 19 76 -7 19 13 52 33 53 9 0 32 20 50 45 26 36
29 46 17 50 -17 7 -20 50 -4 59 16 10 32 56 34 100 1 22 6 52 10 68 5 17 3 27
-4 27 -6 0 -11 11 -11 25 0 26 -15 34 -23 13 -2 -7 -7 -10 -11 -7 -4 3 -1 19
5 35 7 16 13 49 15 74 4 74 16 130 26 130 6 0 8 7 4 15 -6 16 30 85 45 85 5 0
9 6 9 13 0 16 61 77 77 77 6 0 16 6 22 14 19 22 122 54 186 58 33 2 62 6 65 9
3 3 23 9 44 13 36 7 39 6 26 -9 -7 -9 -26 -23 -42 -31 -30 -15 -38 -44 -13
-44 8 0 15 4 15 10 0 14 63 5 68 -10 3 -7 -2 -16 -9 -21 -24 -15 7 -10 71 11
73 24 131 51 148 68 17 15 49 16 54 1 3 -8 16 -6 43 5 44 19 198 28 261 16
l39 -7 -32 -14 c-18 -7 -33 -17 -33 -20 0 -11 113 2 128 14 17 13 15 1 -4 -27
-19 -31 -7 -38 48 -32 147 18 149 18 165 42 8 13 21 24 28 24 7 0 15 7 19 15
3 8 17 20 31 27 21 10 29 8 48 -10 21 -20 25 -20 51 -7 40 21 87 19 93 -3 5
-20 57 -47 73 -37 5 3 43 7 85 9 58 2 75 0 75 -11 0 -7 25 -24 56 -38 46 -20
59 -22 75 -12 16 10 21 9 28 -1 4 -8 14 -12 22 -10 23 5 123 -79 158 -132 18
-27 40 -55 50 -62 43 -31 113 -200 91 -222 -16 -16 -12 -23 15 -30 23 -6 36
-26 17 -26 -5 0 -4 -26 2 -57 8 -43 7 -58 -2 -61 -7 -2 -12 -15 -12 -28 0 -13
-4 -24 -10 -24 -12 0 -13 -153 -1 -178 27 -54 81 -359 81 -462 0 -54 6 -63 31
-50 23 13 37 94 19 115 -7 8 -9 15 -4 15 20 0 36 61 41 159 5 77 3 102 -5 97
-7 -4 -12 -18 -12 -32 0 -30 -20 -32 -21 -1 -5 157 -12 184 -50 172 -20 -7
-26 9 -8 21 7 4 9 21 5 45 -4 24 -2 39 4 39 5 0 10 -6 10 -12 0 -7 11 -18 25
-24 19 -10 27 -9 38 5 8 9 12 22 10 28 -6 16 16 86 29 94 12 8 12 30 3 130
l-8 77 25 -5 25 -5 -9 69 c-10 81 -14 93 -28 93 -7 0 -9 -8 -5 -21 5 -15 4
-19 -4 -15 -15 10 -14 33 3 43 27 16 38 78 25 138 -7 31 -16 58 -21 61 -4 3
-8 18 -8 34 0 15 -6 31 -12 34 -9 3 -8 8 5 16 18 12 23 40 7 40 -6 0 -15 11
-20 25 -5 14 -14 25 -20 25 -5 0 -10 9 -10 20 0 11 -7 23 -15 26 -18 7 -20 35
-3 52 9 9 9 12 0 12 -9 0 -9 5 0 20 17 28 -2 40 -64 40 -34 0 -48 4 -48 14 0
27 -28 40 -65 28 -42 -12 -46 0 -13 35 20 21 20 26 8 63 -9 28 -16 37 -22 28
-5 -9 -8 -4 -8 13 0 14 -6 34 -14 45 -12 15 -17 17 -27 7 -25 -25 -40 -15 -34
21 6 30 4 34 -18 40 -14 3 -32 3 -40 0 -10 -4 -18 5 -26 29 -14 41 -35 62 -82
80 -52 20 -101 49 -131 81 -26 26 -28 27 -28 7 0 -32 -25 -25 -56 17 -38 51
-57 68 -82 76 -25 8 -27 3 -12 -25 7 -13 7 -19 0 -19 -5 0 -10 4 -10 9 0 5
-18 24 -40 41 -33 26 -43 30 -55 20 -12 -10 -23 -8 -57 9 -52 24 -137 41 -236
46 -40 2 -78 8 -85 13 -7 5 -33 12 -58 16 -78 11 -102 16 -174 36 -61 16 -130
22 -140 12z m135 -88 c0 -16 -16 -19 -25 -4 -8 13 4 32 16 25 5 -4 9 -13 9
-21z m-5 -136 c4 -17 3 -28 -3 -28 -12 0 -22 24 -22 53 0 27 16 11 25 -25z
m-420 -18 c3 -5 2 -10 -4 -10 -5 0 -13 5 -16 10 -3 6 -2 10 4 10 5 0 13 -4 16
-10z m200 -1 c11 -17 -1 -21 -15 -4 -8 9 -8 15 -2 15 6 0 14 -5 17 -11z m-158
-60 c8 -15 9 -25 3 -27 -13 -5 -50 40 -43 51 8 13 27 2 40 -24z m-57 -27 c-17
-6 -42 7 -35 18 4 6 13 5 26 -3 10 -6 15 -13 9 -15z m-265 -28 c9 -4 20 -17
25 -29 8 -20 14 -23 49 -18 55 8 52 -9 -6 -30 -41 -15 -49 -16 -62 -3 -12 13
-12 18 -1 31 17 20 1 38 -31 33 -29 -4 -36 -24 -9 -31 28 -7 25 -27 -4 -27
-18 0 -27 8 -34 29 -10 27 -8 31 16 40 34 12 37 12 57 5z m349 -32 c-14 -2
-31 1 -37 7 -8 8 -6 11 6 11 9 0 17 4 17 10 0 5 9 2 20 -8 21 -17 21 -17 -6
-20z m-21 -26 c18 -14 23 -36 8 -36 -6 0 -23 11 -38 25 -25 22 -26 24 -8 24
11 0 28 -6 38 -13z m-406 -52 c-3 -3 -12 -4 -19 -1 -8 3 -5 6 6 6 11 1 17 -2
13 -5z m50 -30 c-3 -3 -12 -4 -19 -1 -8 3 -5 6 6 6 11 1 17 -2 13 -5z m298
-24 c3 -5 2 -10 -4 -10 -5 0 -13 5 -16 10 -3 6 -2 10 4 10 5 0 13 -4 16 -10z
m-243 -51 c-5 -18 -22 -29 -49 -29 -29 0 -37 15 -17 34 19 20 71 15 66 -5z
m-67 -99 c3 -5 1 -10 -4 -10 -6 0 -11 5 -11 10 0 6 2 10 4 10 3 0 8 -4 11 -10z
m115 -29 c0 -5 8 -12 18 -14 9 -2 4 -3 -12 -1 -16 2 -43 4 -60 4 -24 0 -27 3
-16 10 19 12 70 13 70 1z m140 -55 c0 -11 -19 -15 -25 -6 -3 5 1 10 9 10 9 0
16 -2 16 -4z m7 -82 c-3 -3 -12 -4 -19 -1 -8 3 -5 6 6 6 11 1 17 -2 13 -5z
m156 -3 c17 -2 5 -17 -24 -30 -25 -11 -36 -11 -50 -2 -10 6 -29 11 -41 11 -20
1 -20 2 7 14 17 8 46 12 65 10 19 -1 38 -3 43 -3z m87 -61 c0 -5 -7 -10 -16
-10 -8 0 -12 5 -9 10 3 6 10 10 16 10 5 0 9 -4 9 -10z m-77 -26 c3 -3 3 -12 0
-20 -7 -19 -73 -19 -73 0 0 8 -8 17 -17 19 -10 3 5 5 33 6 28 0 53 -2 57 -5z
m110 -1 c-7 -2 -19 -2 -25 0 -7 3 -2 5 12 5 14 0 19 -2 13 -5z m1740 -668 c4
-8 2 -17 -3 -20 -6 -4 -10 -4 -10 -1 0 2 -3 11 -6 20 -3 9 -2 16 4 16 5 0 12
-7 15 -15z m-105 -53 c2 -7 -3 -12 -12 -12 -9 0 -16 7 -16 16 0 17 22 14 28
-4z m-41 -54 c-3 -8 -6 -5 -6 6 -1 11 2 17 5 13 3 -3 4 -12 1 -19z m43 7 c0
-8 -4 -15 -10 -15 -5 0 -10 7 -10 15 0 8 5 15 10 15 6 0 10 -7 10 -15z m-2723
-777 c-3 -8 -6 -5 -6 6 -1 11 2 17 5 13 3 -3 4 -12 1 -19z"/>
<path d="M3615 3691 c-3 -5 -1 -12 5 -16 5 -3 10 1 10 9 0 18 -6 21 -15 7z"/>
<path d="M1247 3467 c-71 -11 -128 -56 -106 -83 9 -11 22 -14 43 -9 33 7 40 7
191 5 77 -2 104 -6 119 -18 13 -12 20 -13 23 -6 2 7 13 10 24 7 11 -3 28 2 39
12 18 16 20 16 20 2 0 -9 -7 -20 -16 -25 -9 -5 -13 -12 -8 -15 19 -11 150 -46
169 -45 11 1 37 -2 59 -6 35 -7 38 -6 31 11 -4 10 -10 27 -12 38 -5 24 -66 58
-80 44 -12 -12 -73 11 -73 28 0 7 -9 13 -20 13 -13 0 -18 -5 -14 -15 10 -26
-31 -16 -86 20 -8 5 -40 11 -69 12 -39 1 -59 6 -68 18 -7 11 -20 16 -33 12
-11 -3 -20 -2 -20 2 0 10 -41 9 -113 -2z"/>
<path d="M2890 3395 c-13 -16 -8 -18 27 -9 13 4 20 10 17 15 -8 14 -30 11 -44
-6z"/>
<path d="M2990 3395 c-10 -13 -9 -15 9 -15 11 0 21 4 21 9 0 18 -18 21 -30 6z"/>
<path d="M2820 3390 c0 -5 7 -10 15 -10 8 0 15 5 15 10 0 6 -7 10 -15 10 -8 0
-15 -4 -15 -10z"/>
<path d="M2736 3355 c-9 -7 -16 -22 -16 -34 0 -18 6 -21 42 -21 45 0 148 29
148 42 0 4 17 8 37 8 20 0 34 3 30 6 -12 12 -224 11 -241 -1z"/>
<path d="M1210 3330 c0 -13 34 -30 59 -30 26 0 27 9 4 26 -21 16 -63 18 -63 4z"/>
<path d="M1135 3311 c3 -6 -4 -15 -15 -21 -11 -6 -20 -17 -20 -25 0 -19 3 -19
43 3 36 19 40 52 6 52 -11 0 -18 -4 -14 -9z"/>
<path d="M1320 3206 c-51 -13 -90 -42 -90 -68 0 -21 -16 -24 -23 -5 -2 6 -2 1
0 -11 2 -13 -1 -30 -7 -37 -16 -20 -2 -42 38 -58 43 -17 62 -8 62 29 0 13 6
24 13 24 7 0 26 13 41 29 23 24 103 61 130 61 4 0 3 -24 0 -53 -7 -63 13 -112
52 -127 77 -30 137 22 142 121 2 40 0 47 -23 57 -22 10 -29 9 -41 -3 -17 -17
-34 -12 -34 10 0 30 -163 19 -234 -16 -48 -23 -46 -23 -46 -4 0 9 8 19 18 22
15 6 63 45 51 42 -2 -1 -24 -6 -49 -13z m290 -100 c0 -19 -31 -30 -41 -14 -4
6 -5 16 -3 20 9 14 44 9 44 -6z"/>
<path d="M2915 3170 c-4 -6 -14 -10 -23 -9 -36 3 -47 -2 -59 -28 -17 -37 -16
-50 6 -72 12 -12 17 -28 14 -44 -4 -21 0 -26 31 -37 62 -20 114 9 114 65 0 20
-6 36 -14 39 -11 4 -12 10 -2 31 9 21 9 28 -1 35 -8 4 -10 13 -7 19 5 7 -3 11
-23 11 -16 0 -33 -5 -36 -10z m19 -68 c9 -15 -6 -52 -20 -52 -8 0 -13 6 -11
13 1 6 -4 11 -11 9 -10 -2 -10 2 -2 18 11 20 35 27 44 12z"/>
<path d="M3156 3108 c27 -33 46 -48 61 -48 23 0 14 17 -25 44 -47 32 -61 34
-36 4z"/>
<path d="M2065 2220 c-11 -4 -31 -20 -44 -34 -29 -31 -53 -33 -91 -6 l-28 20
5 -21 c3 -11 16 -27 29 -36 25 -16 34 -15 129 11 49 13 50 13 83 -15 44 -39
87 -60 106 -53 23 9 20 21 -8 28 -13 3 -50 30 -82 61 -62 57 -66 59 -99 45z"/>
<path d="M2380 2185 c-37 -38 -35 -43 9 -20 22 11 37 12 62 5 46 -13 59 -12
59 4 0 18 -44 46 -73 46 -13 0 -37 -15 -57 -35z"/>
<path d="M3367 1737 c-87 -182 -89 -192 -93 -357 -2 -85 -4 -165 -5 -178 -2
-37 9 -58 24 -43 9 9 9 14 -3 21 -8 5 -11 12 -7 17 5 4 12 1 16 -6 5 -7 14
-11 20 -7 19 12 45 79 43 112 -2 18 2 35 8 39 5 3 10 43 10 90 0 46 3 90 6 99
7 17 34 22 34 6 0 -25 18 -6 24 25 5 24 1 47 -14 79 -11 25 -20 52 -20 60 0 9
-5 16 -11 16 -7 0 -9 10 -5 24 9 38 -10 40 -27 3z"/>
<path d="M1911 1701 c-7 -5 -21 -7 -30 -4 -9 2 -27 0 -41 -6 -21 -8 -16 -10
32 -10 31 -1 59 3 63 8 8 14 -8 21 -24 12z"/>
<path d="M1797 1683 c-4 -3 -7 -11 -7 -17 0 -6 5 -5 12 2 6 6 9 14 7 17 -3 3
-9 2 -12 -2z"/>
<path d="M2730 1680 c20 -13 50 -13 50 0 0 6 -15 10 -32 10 -25 0 -29 -3 -18
-10z"/>
<path d="M1105 1672 c-6 -5 -27 -15 -47 -22 -42 -13 -48 -25 -18 -35 23 -7 26
-26 8 -55 -13 -21 -6 -36 11 -25 6 3 18 22 26 42 8 19 20 33 27 31 20 -7 21
-57 2 -86 -42 -64 -13 -146 140 -389 42 -67 88 -148 102 -180 14 -32 31 -65
38 -73 16 -18 50 -115 70 -195 8 -33 20 -81 26 -107 8 -32 23 -55 46 -75 19
-15 34 -34 34 -40 0 -7 6 -13 13 -13 7 0 19 -9 27 -20 14 -19 54 -44 125 -77
17 -8 37 -18 46 -23 9 -5 34 -11 55 -15 37 -6 38 -5 20 9 -11 9 -27 16 -37 16
-9 0 -19 7 -23 15 -3 8 -11 15 -18 15 -7 0 -25 11 -40 25 -15 14 -31 25 -36
25 -16 0 -54 62 -44 72 6 6 12 6 16 -1 4 -6 16 -11 27 -11 10 0 19 -7 19 -15
0 -8 6 -16 13 -17 6 0 17 -2 22 -3 6 -2 15 -3 22 -4 6 0 13 -8 15 -17 3 -15
51 -38 106 -51 12 -3 22 -9 22 -14 0 -13 49 -31 83 -31 15 0 27 -3 27 -8 0
-16 42 -23 51 -9 6 9 9 10 9 2 0 -26 276 -40 323 -16 15 7 25 18 22 23 -3 6 1
7 10 4 11 -5 17 2 21 25 4 17 10 28 15 25 9 -5 79 37 79 49 0 4 19 26 43 50
23 23 50 54 60 69 10 16 24 28 32 28 13 0 35 36 35 57 0 3 -20 3 -44 0 -31 -5
-46 -3 -49 6 -3 9 -8 9 -21 -2 -9 -8 -19 -11 -23 -8 -8 9 17 37 33 37 8 0 14
9 14 19 0 11 7 26 15 35 8 8 15 18 15 23 -1 4 -9 -2 -20 -15 -17 -20 -22 -22
-42 -11 -17 9 -23 9 -26 0 -5 -16 -32 6 -32 26 0 10 4 11 19 3 28 -15 38 -13
44 10 5 19 26 25 70 22 11 -1 21 6 24 15 2 10 35 40 71 68 83 62 122 97 122
110 0 6 10 15 22 20 28 13 48 46 31 52 -24 9 -13 23 12 17 20 -5 26 -1 34 20
6 14 19 31 31 38 11 7 20 19 20 26 0 7 6 15 14 18 8 3 19 19 25 35 5 16 15 29
20 29 6 0 11 5 11 10 0 19 -32 10 -37 -10 -3 -11 -9 -20 -14 -20 -4 0 -13 -16
-20 -35 -7 -19 -20 -35 -28 -35 -8 0 -29 -11 -47 -25 -18 -14 -37 -25 -43 -25
-5 0 -16 -12 -23 -27 -7 -15 -24 -33 -38 -40 -13 -6 -28 -22 -32 -34 -7 -18
-11 -19 -23 -9 -9 7 -17 11 -18 9 -1 -2 -12 -22 -23 -44 -14 -28 -28 -41 -44
-43 -14 -2 -29 -10 -33 -18 -4 -8 -14 -14 -22 -14 -7 0 -15 -5 -17 -11 -2 -5
-16 -12 -32 -13 -16 -2 -35 -11 -41 -20 -16 -21 -31 -20 -39 1 -6 15 -8 15
-24 0 -15 -16 -17 -16 -28 5 l-12 21 -6 -21 c-10 -30 -24 -28 -32 4 -5 18 -9
22 -14 13 -5 -7 -6 -18 -3 -26 3 -7 -2 -13 -11 -13 -9 0 -16 7 -16 15 0 19
-14 19 -33 0 -8 -8 -18 -11 -22 -7 -4 4 -64 8 -133 9 -128 1 -212 10 -212 22
0 4 -18 6 -40 6 -22 0 -40 3 -40 7 0 5 -8 8 -17 8 -10 0 -27 13 -37 29 -16 23
-26 28 -48 26 -15 -2 -34 2 -42 10 -7 8 -16 12 -19 9 -2 -3 -7 7 -11 21 -4 15
-13 25 -24 25 -18 0 -73 55 -64 65 3 3 -2 5 -11 5 -11 0 -18 12 -23 37 -8 45
-70 111 -87 94 -15 -15 -27 -14 -27 4 0 8 4 15 10 15 5 0 7 7 4 15 -4 8 -12
15 -19 15 -20 0 -38 27 -24 35 8 6 7 11 -6 17 -11 7 -20 7 -27 0 -15 -15 -62
13 -69 40 -3 13 -12 22 -19 20 -8 -2 -10 3 -6 13 5 15 -21 55 -37 55 -5 0 -20
14 -34 30 -13 17 -30 30 -36 30 -17 1 -47 66 -47 103 0 23 -3 28 -9 18 -8 -12
-12 -12 -25 2 -9 8 -16 22 -16 31 0 8 -6 19 -14 23 -7 4 -15 14 -17 21 -3 8
-8 9 -14 4z m-8 -48 c-3 -3 -12 -4 -19 -1 -8 3 -5 6 6 6 11 1 17 -2 13 -5z
m1883 -538 c0 -3 -4 -8 -10 -11 -5 -3 -10 -1 -10 4 0 6 5 11 10 11 6 0 10 -2
10 -4z m-500 -646 c0 -5 -7 -10 -16 -10 -8 0 -12 5 -9 10 3 6 10 10 16 10 5 0
9 -4 9 -10z m-80 -30 c0 -5 -5 -10 -11 -10 -5 0 -7 5 -4 10 3 6 8 10 11 10 2
0 4 -4 4 -10z"/>
<path d="M1751 1671 c-8 -6 -9 -11 -3 -15 6 -3 14 -1 17 5 9 14 2 20 -14 10z"/>
<path d="M2093 1353 c-7 -2 -13 -11 -13 -18 0 -18 46 -25 63 -8 11 12 18 11
42 -1 16 -8 33 -12 38 -9 5 3 39 6 76 7 109 4 123 5 116 16 -4 6 -11 8 -16 5
-5 -4 -9 -2 -9 3 0 14 -83 13 -93 -1 -7 -9 -10 -9 -14 1 -5 12 -162 17 -190 5z"/>
<path d="M2759 715 c-1 -3 -3 -9 -4 -15 -1 -5 -3 -15 -4 -20 0 -6 -16 -17 -33
-25 l-33 -14 32 -1 c21 0 41 9 59 25 23 22 25 26 11 40 -16 15 -26 19 -28 10z"/>
<path d="M900 344 c-14 -2 -70 -11 -125 -20 -55 -8 -130 -24 -167 -35 -64 -18
-68 -21 -74 -54 -11 -60 -2 -68 63 -60 32 4 75 14 96 22 49 20 178 14 372 -17
39 -6 85 -15 103 -20 27 -7 32 -6 32 10 0 30 14 31 102 11 87 -20 128 -19 128
5 0 22 20 27 39 10 32 -29 44 -19 22 18 -12 18 -21 43 -21 54 0 29 -23 39
-121 56 -83 15 -401 29 -449 20z"/>
<path d="M1955 290 c-3 -5 14 -14 37 -19 24 -6 63 -18 88 -28 50 -18 311 -38
320 -24 3 4 27 11 54 13 27 3 52 12 57 19 11 19 -8 24 -27 8 -19 -16 -214 -17
-269 -1 -29 8 -52 8 -84 0 -30 -8 -45 -8 -50 0 -3 5 -23 13 -44 17 -20 4 -37
11 -37 16 0 12 -37 12 -45 -1z"/>
<path d="M1467 23 c-10 -9 -9 -23 2 -23 5 0 11 7 15 15 5 15 -5 20 -17 8z"/>
</g>
</svg>
